# xmcd CD database file generated by OrangeCD 5.2
#
# Track frame offsets:
#	150
#	9901
#	21818
#	32856
#	44336
#	56975
#	68803
#	81250
#	95011
#	106539
#	122805
#	135761
#	150171
#	162004
#	173631
#	185140
#
# Disc length: 2594 seconds
#
# Revision: 0
# Processed by: cddbd v1.5.1PL0 Copyright (c) Steve Scherf et al.
# Submitted via: OrangeCD 5.2
#
DISCID=c00a2010
DTITLE=Brenda Lee - 16 Greatest Hits
DYEAR=2005
DGENRE=Country
TTITLE0=Coming On Strong
TTITLE1=I'm Sorry
TTITLE2=Fool #1
TTITLE3=Break It To Me Gently
TTITLE4=All Alone Am I
TTITLE5=As Usual
TTITLE6=Emotions
TTITLE7=Nobody Wins
TTITLE8=Losing You
TTITLE9=You Can Depend On Me
TTITLE10=Too Many Rivers
TTITLE11=I Want to Be Wanted
TTITLE12=Sweet Nothin's
TTITLE13=That's All You Gotta Do
TTITLE14=Dum Dum
TTITLE15=Rocking Around the Christmas Tree
EXTD=
EXTT0=
EXTT1=
EXTT2=
EXTT3=
EXTT4=
EXTT5=
EXTT6=
EXTT7=
EXTT8=
EXTT9=
EXTT10=
EXTT11=
EXTT12=
EXTT13=
EXTT14=
EXTT15=
PLAYORDER=
